<?xml version="1.0" encoding="UTF-8"?>
<svg xmlns="http://www.w3.org/2000/svg" viewBox="0 0 1317 336">
  <defs>
    <style>
      .cls-1 {
        fill: #fff;
      }
    </style>
  </defs>
  <g id="baclgrounds">
    <rect class="cls-1" y="0" width="1317" height="336"/>
  </g>
  <g id="Layer_1" data-name="Layer 1">
    <g>
      <g>
        <path d="M1116.5,93.75h1.66c.02,1.14.95,2.04,2.48,2.04,1.31,0,2.2-.6,2.2-1.6,0-2.99-5.99-.78-5.99-5.24,0-1.68,1.36-3.08,3.7-3.08,1.88,0,3.76,1.01,3.8,3.32h-1.72c0-1.09-.74-1.79-2.09-1.79s-1.99.73-1.99,1.52c0,2.67,6.06.66,6.06,5.14,0,1.85-1.47,3.29-4.02,3.29-2.37,0-4.08-1.47-4.08-3.61Z"/>
        <path d="M1134.58,86.08h2.07l4.11,11.07h-1.8l-.87-2.4h-4.98l-.87,2.4h-1.76l4.1-11.07ZM1137.55,93.22l-1.9-5.22h-.11l-1.9,5.22h3.91Z"/>
        <path d="M1147.4,86.08h1.71v9.55h4.62v1.52h-6.33v-11.07Z"/>
        <path d="M1160.55,86.08h3.51c3.53,0,5.6,2.29,5.6,5.52,0,3.43-2.07,5.55-5.6,5.55h-3.51v-11.07ZM1164.03,95.67c2.28,0,3.89-1.38,3.89-4.07s-1.58-4.02-3.89-4.02h-1.77v8.08h1.77Z"/>
        <path d="M1179.38,86.08h2.07l4.11,11.07h-1.8l-.87-2.4h-4.98l-.87,2.4h-1.76l4.1-11.07ZM1182.35,93.22l-1.9-5.22h-.11l-1.9,5.22h3.91Z"/>
        <path d="M1192.2,86.08h1.82l5.25,8.19h.09v-8.19h1.66v11.07h-1.84l-5.22-8.19h-.09v8.19h-1.68v-11.07Z"/>
        <path d="M1208.91,86.08h1.71v4.67h5.38v-4.67h1.69v11.07h-1.69v-4.82h-5.38v4.82h-1.71v-11.07Z"/>
        <path d="M1228.44,86.08h2.07l4.11,11.07h-1.8l-.87-2.4h-4.98l-.87,2.4h-1.76l4.1-11.07ZM1231.42,93.22l-1.9-5.22h-.11l-1.9,5.22h3.91Z"/>
      </g>
      <g>
        <path d="M1134.08,162.63h1.71v9.55h4.62v1.52h-6.33v-11.07Z"/>
        <path d="M1146.86,169.65v-7.02h1.71v7.01c0,1.65.87,2.69,2.56,2.69s2.56-1.04,2.56-2.7v-6.99h1.69v7.01c0,2.55-1.61,4.27-4.25,4.27s-4.27-1.71-4.27-4.25Z"/>
        <path d="M1165.43,168.07l-3.43-5.44h1.93l2.53,4.08h.09l2.55-4.08h1.95l-3.45,5.44,3.61,5.63h-1.98l-2.69-4.3h-.09l-2.66,4.3h-1.98l3.62-5.63Z"/>
        <path d="M1177.67,169.65v-7.02h1.71v7.01c0,1.65.87,2.69,2.56,2.69s2.56-1.04,2.56-2.7v-6.99h1.69v7.01c0,2.55-1.61,4.27-4.25,4.27s-4.27-1.71-4.27-4.25Z"/>
        <path d="M1193.98,162.63h3.95c2.26,0,3.72,1.39,3.72,3.4,0,1.58-.98,2.77-2.2,3.21l2.52,4.46h-1.93l-2.26-4.21h-2.09v4.21h-1.71v-11.07ZM1197.86,168.01c1.17,0,2.04-.66,2.04-1.98,0-1.08-.73-1.93-2.1-1.93h-2.1v3.91h2.17Z"/>
        <path d="M1211.38,169.43l-3.97-6.8h1.85l2.89,5.08h.11l2.86-5.08h1.91l-3.95,6.8v4.27h-1.71v-4.27Z"/>
      </g>
      <g>
        <path d="M1137.94,239.36h1.71v9.55h4.62v1.52h-6.33v-11.07Z"/>
        <path d="M1151.1,239.36h1.71v11.07h-1.71v-11.07Z"/>
        <path d="M1159.42,239.36h1.85l3.12,8.98h.09l3.16-8.98h1.9l-4.16,11.07h-1.88l-4.08-11.07Z"/>
        <path d="M1176.18,239.36h1.71v11.07h-1.71v-11.07Z"/>
        <path d="M1185.75,239.36h1.82l5.25,8.19h.09v-8.19h1.66v11.07h-1.83l-5.22-8.19h-.09v8.19h-1.68v-11.07Z"/>
        <path d="M1201.81,244.9c0-3.26,2.4-5.74,5.76-5.74,2.67,0,4.63,1.6,5.3,3.75h-1.88c-.52-1.27-1.72-2.14-3.42-2.14-2.39,0-3.99,1.77-3.99,4.13s1.61,4.14,4,4.14c2.02,0,3.57-1.27,3.7-3.07h-3.99v-1.44h5.88c.06,3.97-2.45,6.11-5.62,6.11-3.34,0-5.76-2.45-5.76-5.74Z"/>
      </g>
      <rect x="797.04" y="89.17" width="3.3" height="79.09"/>
      <polygon points="806.92 85.88 800.33 85.88 800.33 89.17 806.92 87.52 806.92 85.88"/>
      <polygon points="744.17 115.48 750.76 115.48 750.76 112.19 744.17 113.84 744.17 115.48"/>
      <polygon points="537.72 85.88 531.13 85.88 531.13 89.17 537.72 87.52 537.72 85.88"/>
      <polygon points="797.04 85.88 790.44 85.88 790.44 87.52 797.04 89.17 797.04 85.88"/>
      <polygon points="879.42 85.88 872.83 85.88 872.83 87.52 879.42 89.17 879.42 85.88"/>
      <polygon points="992.76 85.88 986.17 85.88 986.17 87.52 992.76 89.17 992.76 85.88"/>
      <polygon points="1002.65 85.88 996.06 85.88 996.06 89.17 1002.65 87.52 1002.65 85.88"/>
      <polygon points="996.06 89.2 992.76 89.2 969.04 168.26 972.34 168.26 996.06 89.2"/>
      <polygon points="1024.74 85.88 1018.15 85.88 1018.15 87.52 1024.74 89.17 1024.74 85.88"/>
      <rect x="823.4" y="89.17" width="3.3" height="79.09"/>
      <path d="M1001.02,168.26h50.73l-23.72-79.06h-3.3l-23.72,79.06ZM1047.47,164.96h-42.17l21.08-70.28,21.08,70.28Z"/>
      <polygon points="823.4 85.88 816.81 85.88 816.81 87.52 823.4 89.17 823.4 85.88"/>
      <polygon points="527.83 85.88 521.24 85.88 521.24 87.52 527.83 89.17 527.83 85.88"/>
      <polygon points="889.3 85.88 882.71 85.88 882.71 89.17 889.3 87.52 889.3 85.88"/>
      <polygon points="903.14 168.26 906.43 168.26 882.71 89.2 879.42 89.2 903.14 168.26"/>
      <polygon points="1034.63 85.88 1028.04 85.88 1028.04 89.17 1034.63 87.52 1034.63 85.88"/>
      <polygon points="212.48 85.88 205.89 85.88 205.89 89.17 212.48 87.52 212.48 85.88"/>
      <polygon points="202.59 85.88 196 85.88 196 87.52 202.59 89.17 202.59 85.88"/>
      <rect x="225.66" y="89.17" width="3.3" height="79.09"/>
      <polygon points="225.66 85.88 219.07 85.88 219.07 87.52 225.66 89.17 225.66 85.88"/>
      <polygon points="252.02 168.26 314.63 168.26 314.63 164.96 255.32 164.96 255.32 89.17 252.02 89.17 252.02 168.26"/>
      <polygon points="235.54 85.88 228.95 85.88 228.95 89.17 235.54 87.52 235.54 85.88"/>
      <polygon points="89.25 85.88 82.66 85.88 82.66 87.52 89.25 89.17 89.25 85.88"/>
      <polygon points="112.97 168.26 116.26 168.26 92.54 89.2 89.25 89.2 112.97 168.26"/>
      <polygon points="99.13 85.88 92.54 85.88 92.54 89.17 99.13 87.52 99.13 85.88"/>
      <polygon points="205.89 89.2 202.59 89.2 178.87 168.26 182.17 168.26 205.89 89.2"/>
      <rect x="357.47" y="89.17" width="3.3" height="79.09"/>
      <polygon points="357.47 85.88 350.88 85.88 350.88 87.52 357.47 89.17 357.47 85.88"/>
      <polygon points="383.83 85.88 377.24 85.88 377.24 87.52 383.83 89.17 383.83 85.88"/>
      <polygon points="367.36 85.88 360.77 85.88 360.77 89.17 367.36 87.52 367.36 85.88"/>
      <polygon points="317.93 158.37 316.28 158.37 314.63 164.96 317.93 164.96 317.93 158.37"/>
      <path d="M383.8,168.26h41.23c22.75,0,41.19-18.44,41.19-41.19s-18.44-41.19-41.19-41.19c-17.01,0-31.61,10.31-37.9,25.03v-21.73h-3.3l-.04,79.09ZM425.02,89.17c20.93,0,37.9,16.97,37.9,37.9s-16.97,37.9-37.9,37.9-37.9-16.97-37.9-37.9,16.97-37.9,37.9-37.9ZM387.13,143.23c4.16,9.75,11.98,17.57,21.73,21.73h-21.73v-21.73Z"/>
      <path d="M554.84,168.26l-23.72-79.06h-3.3l-23.72,79.06h50.73ZM529.48,94.69l21.08,70.28h-42.17l21.08-70.28Z"/>
      <rect x="255.32" y="85.88" width="75.79" height="3.3"/>
      <polygon points="334.4 95.76 334.4 89.17 331.11 89.17 332.76 95.76 334.4 95.76"/>
      <polygon points="252.02 85.88 245.43 85.88 245.43 87.52 252.02 89.17 252.02 85.88"/>
      <polygon points="497.52 168.26 472.81 250.64 489.28 250.64 514 168.26 497.52 168.26"/>
      <rect x="383.83" y="168.26" width="16.48" height="82.38"/>
      <polygon points="400.31 168.26 448.09 250.64 466.22 250.64 418.43 168.26 400.31 168.26"/>
      <rect x="350.88" y="168.26" width="16.48" height="82.38"/>
      <polygon points="268.5 168.26 252.02 168.26 252.02 250.64 334.4 250.64 334.4 234.17 268.5 234.17 268.5 168.26"/>
      <polygon points="1041.87 168.26 1066.58 250.64 1083.06 250.64 1058.35 168.26 1041.87 168.26"/>
      <polygon points="172.28 168.26 147.57 250.64 164.04 250.64 188.76 168.26 172.28 168.26"/>
      <rect x="219.07" y="168.26" width="16.48" height="82.38"/>
      <polygon points="106.38 168.26 131.09 250.64 147.57 250.64 122.85 168.26 106.38 168.26"/>
      <polygon points="839.87 168.26 823.4 168.26 823.4 250.64 905.78 250.64 905.78 234.17 839.87 234.17 839.87 168.26"/>
      <polygon points="544.96 168.26 569.67 250.64 586.15 250.64 561.43 168.26 544.96 168.26"/>
      <polygon points="896.55 168.26 921.26 250.64 937.74 250.64 913.02 168.26 896.55 168.26"/>
      <polygon points="994.43 168.26 969.72 250.64 986.19 250.64 1010.91 168.26 994.43 168.26"/>
      <polygon points="962.45 168.26 937.74 250.64 954.21 250.64 978.93 168.26 962.45 168.26"/>
      <rect x="790.44" y="168.26" width="16.48" height="82.38"/>
      <g>
        <path d="M727.46,168.26h34.99c-.91-1.14-1.86-2.24-2.86-3.3h-30.76c-7.58-7.59-22.46-22.46-28.51-28.51-11.58-11.58-11.58-30.36,0-41.94,11.58-11.58,30.36-11.58,41.94,0,4.95,4.95,7.78,11.22,8.5,17.68h3.31c-.73-7.3-3.89-14.41-9.49-20.01-12.87-12.87-33.73-12.87-46.6,0-17.26,17.26-8.48,38.13,0,46.6,6.31,6.31,22.26,22.26,29.47,29.47Z"/>
        <path d="M736.43,168.26c3.86,1.77,7.42,4.24,10.52,7.33,6.85,6.85,10.63,15.96,10.63,25.66s-3.77,18.8-10.63,25.66c-6.85,6.85-15.96,10.63-25.66,10.63s-18.8-3.77-25.66-10.63c-6.85-6.85-10.63-15.96-10.63-25.66,0-.01,0-.02,0-.03h-16.48s0,.02,0,.03c0,29.14,23.62,52.76,52.76,52.76s52.76-23.62,52.76-52.76c0-12.49-4.35-23.95-11.6-32.99h-26.02Z"/>
      </g>
      <g>
        <g>
          <polygon points="1024.74 85.88 1018.15 85.88 1018.15 87.52 1024.74 89.17 1024.74 85.88"/>
          <path d="M1001.02,168.26h50.73l-23.72-79.06h-3.3l-23.72,79.06ZM1047.47,164.96h-42.17l21.08-70.28,21.08,70.28Z"/>
          <polygon points="1034.63 85.88 1028.04 85.88 1028.04 89.17 1034.63 87.52 1034.63 85.88"/>
        </g>
        <g>
          <polygon points="1041.87 168.26 1066.58 250.64 1083.06 250.64 1058.35 168.26 1041.87 168.26"/>
          <polygon points="994.43 168.26 969.72 250.64 986.19 250.64 1010.91 168.26 994.43 168.26"/>
        </g>
      </g>
      <path d="M616.16,85.89h8.32c8.88,0,14.04,5.84,14.04,14,0,8.68-5.16,14-14.04,14h-8.32v-28ZM624.48,111.01c6.64,0,10.72-4.08,10.72-11.12s-4-11.08-10.72-11.08h-5.08v22.2h5.08Z"/>
      <path d="M625.46,222.64h3.8l10.76,28h-3.4l-2.52-6.64h-13.52l-2.52,6.64h-3.4l10.8-28ZM632.98,241.04l-5.52-14.64h-.24l-5.52,14.64h11.28Z"/>
    </g>
  </g>
</svg>